<svg width="16" height="16" viewBox="0 0 16 16" fill="none" xmlns="http://www.w3.org/2000/svg">
<g id="fi_337960">
<path id="Vector" d="M4 0C3.45 0 3 0.45 3 1V15C3 15.55 3.45 16 4 16H14C14.55 16 15 15.55 15 15V4L11 0H4Z" fill="#E2E5E7"/>
<path id="Vector_2" d="M12 4H15L11 0V3C11 3.55 11.45 4 12 4Z" fill="#B0B7BD"/>
<path id="Vector_3" d="M15 7L12 4H15V7Z" fill="#CAD1D8"/>
<path id="Vector_4" d="M13 13C13 13.275 12.775 13.5 12.5 13.5H1.5C1.225 13.5 1 13.275 1 13V8C1 7.725 1.225 7.5 1.5 7.5H12.5C12.775 7.5 13 7.725 13 8V13Z" fill="#F66C3B"/>
<g id="Group">
<path id="Vector_5" d="M4.27432 11.8025C4.02232 11.8025 3.92232 11.559 4.06632 11.387L5.48982 9.496H4.30982C3.96232 9.496 3.99032 9.005 4.30982 9.005H5.92132C6.22482 9.005 6.31282 9.292 6.09732 9.5245L4.73382 11.295H6.03332C6.35332 11.295 6.39332 11.803 6.00182 11.803H4.27432V11.8025Z" fill="white"/>
<path id="Vector_6" d="M6.75586 9.27603C6.75586 8.94803 7.28386 8.93603 7.28386 9.27603V11.5585C7.28386 11.89 6.75586 11.8985 6.75586 11.5585V9.27603Z" fill="white"/>
<path id="Vector_7" d="M7.99243 9.276C7.99243 9.144 8.09643 9 8.26443 9H9.18793C9.70793 9 10.1759 9.348 10.1759 10.015C10.1759 10.647 9.70793 10.999 9.18793 10.999H8.52043V11.527C8.52043 11.703 8.40843 11.8025 8.26443 11.8025C8.13243 11.8025 7.99243 11.703 7.99243 11.527V9.276ZM8.51993 9.5035V10.4995H9.18743C9.45543 10.4995 9.66743 10.263 9.66743 10.015C9.66743 9.7355 9.45543 9.5035 9.18743 9.5035H8.51993Z" fill="white"/>
</g>
<path id="Vector_8" d="M12.5 13.5H3V14H12.5C12.775 14 13 13.775 13 13.5V13C13 13.275 12.775 13.5 12.5 13.5Z" fill="#CAD1D8"/>
</g>
</svg>
